<svg viewBox="0 0 800 800" xmlns="http://www.w3.org/2000/svg">
  <defs>
    <linearGradient id="bg" x1="0%" y1="0%" x2="100%" y2="100%">
      <stop offset="0%" stop-color="#D97B2A"/>
      <stop offset="100%" stop-color="#7C3A0B"/>
    </linearGradient>
  </defs>
  <rect width="800" height="800" rx="170" fill="url(#bg)"/>
  <path d="M 585 175 C 585 202 562 224 535 224 C 508 224 485 202 485 175 C 485 143 535 88 535 88 C 535 88 585 143 585 175 Z" fill="#F5C36A"/>
  <g transform="translate(215,175)">
    <path d="M 205 300 C 205 340 165 372 110 372 C 55 372 10 345 10 305 C 10 270 55 245 115 245 C 165 245 205 265 205 300 Z" fill="#FFF7EC"/>
    <path d="M 195 258 C 235 215 200 185 218 145 C 232 112 278 95 312 108 C 330 116 336 135 322 150" fill="none" stroke="#FFF7EC" stroke-width="18" stroke-linecap="round" stroke-linejoin="round"/>
    <circle cx="316" cy="153" r="15" fill="#FFF7EC"/>
    <path d="M 328 158 L 385 178 L 332 175 Z" fill="#FFF7EC"/>
    <g stroke="#FFF7EC" stroke-width="13" stroke-linecap="round">
      <path d="M 90 368 L 72 478" fill="none"/>
      <path d="M 72 478 L 52 480 M 72 478 L 78 497" stroke-width="8"/>
      <path d="M 150 372 L 172 480" fill="none"/>
      <path d="M 172 480 L 152 484 M 172 480 L 190 486" stroke-width="8"/>
    </g>
  </g>
</svg>
